<?xml version="1.0" standalone="no"?>
<!DOCTYPE svg PUBLIC "-//W3C//DTD SVG 20010904//EN"
 "http://www.w3.org/TR/2001/REC-SVG-20010904/DTD/svg10.dtd">
<svg version="1.0" xmlns="http://www.w3.org/2000/svg"
 width="225.000000pt" height="225.000000pt" viewBox="0 0 225.000000 225.000000"
 preserveAspectRatio="xMidYMid meet">

<g transform="translate(0.000000,225.000000) scale(0.100000,-0.100000)"
fill="#000000" stroke="none">
<path d="M0 1125 l0 -1125 1125 0 1125 0 0 1125 0 1125 -1125 0 -1125 0 0
-1125z m1397 223 l113 -113 113 113 112 112 53 -52 52 -53 -112 -112 -113
-113 113 -113 112 -112 -52 -53 -53 -52 -112 112 -113 113 -115 -115 -115
-114 -50 49 c-27 27 -50 54 -50 60 0 6 49 59 108 118 l108 106 -108 108 c-59
59 -108 112 -108 117 0 11 90 106 99 106 3 0 56 -51 118 -112z m-835 -96 l3
-199 29 -37 c52 -68 145 -93 223 -61 48 20 71 41 94 87 17 33 19 60 19 223 l0
186 78 -3 77 -3 0 -195 c-1 -191 -2 -196 -28 -255 -34 -72 -94 -137 -162 -173
-45 -24 -61 -27 -150 -27 -89 0 -106 3 -150 26 -61 33 -129 100 -155 154 -31
64 -40 135 -40 311 l0 164 79 0 80 0 3 -198z"/>
</g>
</svg>
